<mxfile host="app.diagrams.net" modified="2023-09-19T01:22:13.494Z" agent="Mozilla/5.0 (Windows NT 10.0; Win64; x64; rv:109.0) Gecko/20100101 Firefox/117.0" version="21.7.5" etag="RIMS_Ssl7OmlrSpaGYPv" type="github">
  <diagram name="Page-1" id="ZU9p7ruQKcdPnnZEaFGq">
    <mxGraphModel>
      <root>
        <mxCell id="0" />
        <mxCell id="1" parent="0" />
      </root>
    </mxGraphModel>
  </diagram>
</mxfile>
